# xmcd
#
# Track frame offsets:
#      183
#      15170
#      26313
#      43535
#      52588
#      64323
#      74858
#      84925
#      96448
#      116258
#      132845
#      146163
#      166080
#      177910
#      190033
#      219500
#      233103
#      244615
#      255063
#      269010
#      278245
#      288645
#      299250
#      323028
#      338998
# 
# Disc length: 4702 seconds
#
# Revision: 2
# Processed by: cddbd v1.4PL0 Copyright (c) Steve Scherf et al.
#
# Submitted via: FreeRIP 1.20
#
DISCID=66125c19
DTITLE=Various Artist - Blues Classics (Vol. 3)
DYEAR=1996
DGENRE=Blues
TTITLE0=Billie Holiday - Georgia On My Mind
TTITLE1=Big Joe Williams - By Bye Baby Blues
TTITLE2=Howlin' Wolf - Blow Wind Blow
TTITLE3=Memphis Slim - Steppin' Out
TTITLE4=Canned Heat - Straight Ahead
TTITLE5=Ray Charles - Hey Now
TTITLE6=John Lee Hooker - Dimples
TTITLE7=Lightnin' Hopkins - Lightning's Boogie
TTITLE8=Hownlin' Wolf - Howlin' For My Darling
TTITLE9=Mississippi John Hurt - Coffee Blues
TTITLE10=Leadbelly - Frankie and Albert (Part 1)
TTITLE11=Pinetop Perkins - Just Keep On Drinking
TTITLE12=Jimmy Reed - Hush, Hush
TTITLE13=Ligntning Slim - Rooster Blues
TTITLE14=Big Joe Turner - Morning, Noon and Night
TTITLE15=Muddy Waters - Hoochie Coochie Man
TTITLE16=Bis Joe Williams - Ride In My New Car
TTITLE17=Billie Holiday - Lover Man
TTITLE18=Canned Heat - Louise
TTITLE19=Ray Charles - All To Myself
TTITLE20=John Lee Hooker - Old Time Shimmy
TTITLE21=Lightnin' Hopkins - Nothing But The Blues
TTITLE22=Howlin' Wolf - Rocking The Blues
TTITLE23=Mississippi John Hurt - Hot Time In The Old Town Tonight
TTITLE24=Leadbelly - Dekalb Blues
EXTD=
EXTT0=
EXTT1=
EXTT2=
EXTT3=
EXTT4=
EXTT5=
EXTT6=
EXTT7=
EXTT8=
EXTT9=
EXTT10=
EXTT11=
EXTT12=
EXTT13=
EXTT14=
EXTT15=
EXTT16=
EXTT17=
EXTT18=
EXTT19=
EXTT20=
EXTT21=
EXTT22=
EXTT23=
EXTT24=
PLAYORDER=
